
<svg width="23px" height="23px" viewBox="0 0 23 23" version="1.1" xmlns="http://www.w3.org/2000/svg" xmlns:xlink="http://www.w3.org/1999/xlink">
    <g id="Page-1" stroke="none" stroke-width="1" fill="none" fill-rule="evenodd">
        <g id="Casting-Director---Actor-Search" transform="translate(-677.000000, -121.000000)" fill="#8E8E93">
            <g id="Glyphs/Search" transform="translate(677.000000, 121.000000)">
                <path d="M22.5779412,20.6573773 L16.2808698,14.3578415 C17.4096288,12.8183261 18.0143006,10.9570887 18.0058698,9.04812725 C17.9843324,4.06510455 13.9539631,0.0288722939 8.97097693,9.15364288e-05 C6.58633719,-0.0106975841 4.29642634,0.932670186 2.61137176,2.62003919 C0.926317179,4.30740819 -0.0139066684,6.59861171 0.00015549679,8.98323439 C0.0216928787,13.9667107 4.05243,18.0033108 9.03586978,18.0320915 C10.952608,18.0403989 12.8206455,17.4286692 14.3611912,16.2881987 L14.3677626,16.2832701 L20.6590841,22.5778773 C20.9992358,22.934728 21.506085,23.0791728 21.9832514,22.955246 C22.4604178,22.8313192 22.8329247,22.4584935 22.956443,21.9812212 C23.0799614,21.5039489 22.9350829,20.9972234 22.5779412,20.6573773 L22.5779412,20.6573773 Z M9.02929835,16.2282344 C5.04276431,16.2053018 1.81822705,12.9763674 1.80072693,8.98980582 C1.78996718,7.08235474 2.54220814,5.24976005 3.889998,3.89996455 C5.23778786,2.55016905 7.06926196,1.79520388 8.97672693,1.80312725 C12.963261,1.82605987 16.1877982,5.05499423 16.2052984,9.04155582 C16.2160581,10.9490069 15.4638171,12.7816016 14.1160273,14.1313971 C12.7682374,15.4811926 10.9367633,16.2361578 9.02929835,16.2282344 Z" id="Search"></path>
            </g>
        </g>
    </g>
</svg>